<svg xmlns="http://www.w3.org/2000/svg" viewBox="0 0 48 48" role="img" aria-label="Turbo frame navigation">
  <defs>
    <linearGradient id="turbo-shell" x1="6" x2="42" y1="8" y2="40" gradientUnits="userSpaceOnUse">
      <stop stop-color="#55D7FF"/>
      <stop offset="1" stop-color="#BD34FE"/>
    </linearGradient>
    <linearGradient id="turbo-fill" x1="13" x2="36" y1="15" y2="34" gradientUnits="userSpaceOnUse">
      <stop stop-color="#F8FCFF"/>
      <stop offset="1" stop-color="#EAF3FF"/>
    </linearGradient>
    <linearGradient id="turbo-arrow" x1="16" x2="36" y1="25" y2="25" gradientUnits="userSpaceOnUse">
      <stop stop-color="#FFE05D"/>
      <stop offset="1" stop-color="#FF9F1C"/>
    </linearGradient>
    <filter id="turbo-shadow" x="3" y="6" width="42" height="38" color-interpolation-filters="sRGB" filterUnits="userSpaceOnUse">
      <feDropShadow dx="0" dy="2" stdDeviation="2" flood-color="#1F2A44" flood-opacity=".18"/>
    </filter>
  </defs>
  <g filter="url(#turbo-shadow)">
    <rect x="7" y="9" width="34" height="30" rx="7" fill="url(#turbo-fill)" stroke="url(#turbo-shell)" stroke-width="2.5"/>
    <path fill="#D8E5F4" d="M8.8 17.4h30.4v2.3H8.8z"/>
    <circle cx="13.3" cy="14.4" r="1.4" fill="#55D7FF"/>
    <circle cx="17.5" cy="14.4" r="1.4" fill="#9B66FF"/>
    <rect x="12.2" y="23" width="8.2" height="9.5" rx="2" fill="#DDF6FF"/>
    <rect x="23.3" y="23" width="12.4" height="9.5" rx="2" fill="#F1E6FF"/>
    <path fill="url(#turbo-arrow)" d="M29.7 20.7a1.3 1.3 0 0 1 1.8 0l5 4.9a1.3 1.3 0 0 1 0 1.8l-5 4.9a1.3 1.3 0 0 1-2.2-.9v-2.2H17.2a1.8 1.8 0 1 1 0-3.6h12.1v-4a1.3 1.3 0 0 1 .4-.9Z"/>
  </g>
</svg>
